<svg width="819" height="1024" viewBox="0 0 819 1024" fill="none" xmlns="http://www.w3.org/2000/svg">
<path d="M236.445 169.498C246.274 206.182 229.241 251.459 189.418 262.13C169.215 267.543 150.331 266.057 134.332 257.182C118.323 248.302 104.949 231.883 96.0574 206.948C87.1941 182.093 86.821 153.058 94.001 128.729C101.192 104.361 115.81 85.1248 136.579 79.1078C161.865 71.7821 182.862 80.005 199.578 97.2283C216.38 114.54 228.785 140.91 236.445 169.498Z" fill="#D05F01" stroke="#EF9603" stroke-width="4"/>
<path d="M193.881 255.959C212.571 250.951 226.906 236.454 235.274 218.606C243.642 200.756 246.152 179.344 241.011 160.156C233.22 131.078 218.239 107.02 200.55 91.4206C182.889 75.8451 162.29 68.5261 143.44 73.5768C124.402 78.678 111.843 98.0595 105.578 121.365C99.281 144.786 99.1255 172.848 105.457 196.478C118.174 243.94 156.688 265.925 193.881 255.959Z" fill="#FEFEFD" stroke="#F29C10" stroke-width="4"/>
<mask id="mask0" mask-type="alpha" maskUnits="userSpaceOnUse" x="102" y="73" width="140" height="184">
<path d="M237.147 161.191C242.024 179.39 239.656 199.836 231.652 216.908C223.648 233.981 210.116 247.467 192.846 252.095C158.118 261.4 121.559 241.118 109.321 195.443C103.174 172.504 103.323 145.158 109.44 122.404C115.589 99.5349 127.553 81.9749 144.475 77.4405C161.586 72.8557 180.846 79.3762 197.905 94.4206C214.936 109.441 229.536 132.783 237.147 161.191Z" fill="#FEFEFD" stroke="#EF9603" stroke-width="4"/>
</mask>
<g mask="url(#mask0)">
<path d="M228.359 172.682C234.35 202.463 231.369 244.141 191.618 254.792C164.317 262.108 123.389 242.279 109.408 204.555C95.4267 166.83 100.059 101.002 131.493 89.4287C162.928 77.8553 212.807 95.366 228.359 172.682Z" fill="#FAF0D7"/>
</g>
<path d="M151.483 129.088C151.483 136.679 160.683 150.167 170.919 149.936" stroke="#FEC00A" stroke-width="4" stroke-linecap="round" stroke-linejoin="round"/>
<path d="M158.467 132.732C156.645 137.59 161.514 147.591 168.649 149.331" stroke="#FEC00A" stroke-width="4" stroke-linecap="round" stroke-linejoin="round"/>
<path d="M164.236 129.392C161.807 133.036 161.272 144.253 167.182 148.612" stroke="#FEC00A" stroke-width="4" stroke-linecap="round" stroke-linejoin="round"/>
<ellipse cx="175.696" cy="179.492" rx="32.1862" ry="40.9919" transform="rotate(-15 175.696 179.492)" fill="#FEC00A"/>
<ellipse cx="180.305" cy="178.309" rx="27.6316" ry="35.2226" transform="rotate(-15 180.305 178.309)" fill="#FFDD00"/>
<ellipse cx="190.68" cy="168.927" rx="4.85829" ry="7.59109" transform="rotate(-15 190.68 168.927)" fill="#EF9603"/>
<ellipse cx="191.303" cy="166.56" rx="1.82186" ry="3.03643" transform="rotate(-15 191.303 166.56)" fill="white"/>
<path d="M177.843 186.435C183.144 185.822 185.346 184.65 188.754 181.999" stroke="#EF9603" stroke-width="3" stroke-linecap="round"/>
<ellipse cx="166.672" cy="177.875" rx="4.85829" ry="7.59109" transform="rotate(-15 166.672 177.875)" fill="#EF9603"/>
<ellipse cx="167.08" cy="175.879" rx="2.1255" ry="2.73279" transform="rotate(-15 167.08 175.879)" fill="white"/>
<path d="M553.099 859.743C570.627 857.256 607.175 846.168 613.142 821.703" stroke="#EF9603" stroke-width="4.47525" stroke-linecap="round" stroke-linejoin="round"/>
<path d="M411.043 869C393.515 871.486 356.967 882.575 351 907.04" stroke="#EF9603" stroke-width="4.47525" stroke-linecap="round" stroke-linejoin="round"/>
<path d="M469.169 949.993C470.065 958.778 465.665 977.983 440.898 984.533" stroke="#F38F12" stroke-width="4.47525" stroke-linecap="round"/>
<path d="M503.125 949.993C510.335 955.09 521.921 971.027 510.584 994" stroke="#F38F12" stroke-width="4.47525" stroke-linecap="round"/>
<path d="M533.286 799.309C515.981 801.967 486.139 780.484 473.381 769.41C451.748 762.766 443.429 781.037 423.46 794.326C403.491 807.614 406.82 845.819 393.508 869.074C380.195 892.329 405.156 907.279 423.46 938.839C441.765 970.399 501.67 960.433 508.326 938.839C514.982 917.245 558.247 882.363 563.239 855.785C568.231 829.208 554.919 795.987 533.286 799.309Z" fill="#EF9603" stroke="#FDB035" stroke-width="3.72937"/>
<path d="M547.458 799.309C530.152 801.967 500.31 780.484 487.553 769.41C465.92 762.766 457.601 781.037 437.632 794.326C417.663 807.614 420.991 845.819 407.679 869.074C394.367 892.329 419.327 907.279 437.632 938.839C455.936 970.399 515.841 960.433 522.498 938.839C529.154 917.245 572.419 882.363 577.411 855.785C582.403 829.208 569.091 795.987 547.458 799.309Z" fill="white" stroke="#FDB035" stroke-width="3.72937"/>
<ellipse cx="487.835" cy="863.099" rx="51.8383" ry="60.7888" fill="#FDB035"/>
<ellipse cx="496.04" cy="862.726" rx="39.1584" ry="46.2442" fill="#FFDD00"/>
<ellipse cx="515.06" cy="856.386" rx="5.967" ry="9.32343" fill="#EF9603"/>
<ellipse cx="516.551" cy="853.776" rx="2.23762" ry="3.72937" fill="white"/>
<path d="M494.265 873.076C500.748 874.034 503.733 873.343 508.619 871.282" stroke="#EF9603" stroke-width="2.23762" stroke-linecap="round"/>
<ellipse cx="483.733" cy="859.37" rx="5.967" ry="9.32343" fill="#EF9603"/>
<ellipse cx="484.851" cy="857.132" rx="2.61056" ry="3.35644" fill="white"/>
<path d="M403.178 801.317C403.924 798.334 407.28 791.397 414.739 787.519" stroke="white" stroke-width="2.9835" stroke-linecap="round"/>
<path d="M533.706 937.811C534.49 934.838 537.935 927.945 545.442 924.162" stroke="white" stroke-width="2.9835" stroke-linecap="round"/>
<path d="M543.403 938.67C543.996 936.96 546.616 933 552.353 930.84" stroke="white" stroke-width="2.9835" stroke-linecap="round"/>
<path d="M394.682 804.198C394.611 801.88 395.56 796.194 399.917 791.994" stroke="white" stroke-width="2.9835" stroke-linecap="round"/>
<path d="M684.619 410.125C669.319 417.467 635.603 406.04 620.657 399.408C598.728 399.376 596.153 418.609 581.375 436.526C566.596 454.443 580.431 488.807 574.629 514.055C568.826 539.302 596.178 546.07 622.031 570.066C647.884 594.062 700.631 567.94 700.728 546.107C700.825 524.273 731.131 479.825 728.283 453.857C725.436 427.888 703.745 400.948 684.619 410.125Z" fill="#EF9603" stroke="#FDB035" stroke-width="3.19943"/>
<path d="M693.019 587.021C701.158 588.577 717.245 597.698 716.474 621.729" stroke="#F38F12" stroke-width="3.83932" stroke-linecap="round"/>
<path d="M700.803 526.04C717.392 525.12 752.458 517.682 759.999 495.283" stroke="#EF9603" stroke-width="3.83932" stroke-linecap="round" stroke-linejoin="round"/>
<path d="M605.627 561.824C597.478 563.328 581.333 572.346 581.949 596.381" stroke="#F38F12" stroke-width="3.83932" stroke-linecap="round"/>
<path d="M598.235 500.795C581.652 499.769 546.635 492.105 539.238 469.658" stroke="#EF9603" stroke-width="3.83932" stroke-linecap="round" stroke-linejoin="round"/>
<path d="M697.667 425.582C682.369 432.933 648.631 421.434 633.674 414.766C611.738 414.712 609.182 434.006 594.417 451.967C579.652 469.928 593.525 504.419 587.747 529.744C581.968 555.069 609.335 561.886 635.22 585.987C661.104 610.088 713.841 583.933 713.916 562.028C713.992 540.123 744.263 495.558 741.388 469.502C738.513 443.445 716.789 416.394 697.667 425.582Z" fill="white" stroke="#FDB035" stroke-width="3.19943"/>
<ellipse cx="653.779" cy="500.669" rx="48.652" ry="57.0524" transform="rotate(5.147 653.779 500.669)" fill="#FDB035"/>
<ellipse cx="651.656" cy="500.83" rx="36.7515" ry="43.4018" transform="rotate(5.147 651.656 500.83)" fill="#FFDD00"/>
<ellipse rx="5.60023" ry="8.75036" transform="matrix(-0.997298 0.0734635 0.0734635 0.997298 665.496 508.437)" fill="#EF9603"/>
<ellipse rx="5.60023" ry="8.75036" transform="matrix(-0.997298 0.0734635 0.0734635 0.997298 635.969 507.804)" fill="#EF9603"/>
<circle cx="635.604" cy="504.588" r="2.4501" transform="rotate(-30.0601 635.604 504.588)" fill="white"/>
<circle cx="665.13" cy="505.293" r="2.4501" transform="rotate(-30.0601 665.13 505.293)" fill="white"/>
<path fill-rule="evenodd" clip-rule="evenodd" d="M614.718 474.816C627.459 476.108 640.984 488.08 646.004 499.478C647.722 503.38 654.319 503.292 656.261 499.918C664.96 484.799 688.961 475.206 704.279 478.659C702.872 486.752 699.765 494.494 692.725 508.45C685.685 522.406 668.981 526.069 663.089 522.671C659.765 521.131 657.471 519.434 655.759 517.38C652.998 514.07 648.366 514.384 645.502 516.94L639.962 520.98C631.549 524.463 620.876 520.728 615.856 514.937C607.781 505.621 599.809 484.854 598.751 474.131C598.885 473.476 602.689 472.715 614.718 474.816ZM643.691 501.126C649.005 511.859 642.74 519.399 633.559 519.005C624.379 518.611 616.912 512.831 612.096 502.19C607.217 491.407 603.907 478.687 613.088 479.081C622.269 479.475 636.908 487.429 643.691 501.126ZM667.411 520.527C658.23 520.133 652.635 512.084 658.849 501.846C666.78 488.779 682.047 482.109 691.227 482.503C700.408 482.897 696.021 495.286 690.236 505.611C684.527 515.802 676.592 520.921 667.411 520.527Z" fill="#F38F12"/>
<path d="M646.004 499.478L646.251 499.369L646.004 499.478ZM614.718 474.816L614.671 475.082L614.681 475.084L614.69 475.085L614.718 474.816ZM656.261 499.918L656.495 500.053L656.261 499.918ZM704.279 478.659L704.545 478.705L704.589 478.451L704.338 478.395L704.279 478.659ZM692.725 508.45L692.966 508.572L692.725 508.45ZM663.089 522.671L663.224 522.437L663.213 522.431L663.202 522.426L663.089 522.671ZM655.759 517.38L655.966 517.207L655.759 517.38ZM645.502 516.94L645.661 517.159L645.672 517.151L645.682 517.142L645.502 516.94ZM639.962 520.98L640.065 521.23L640.095 521.217L640.121 521.198L639.962 520.98ZM615.856 514.937L616.061 514.76L615.856 514.937ZM598.751 474.131L598.486 474.076L598.478 474.116L598.482 474.157L598.751 474.131ZM643.691 501.126L643.933 501.006L643.691 501.126ZM612.096 502.19L612.343 502.078L612.096 502.19ZM658.849 501.846L659.08 501.986L658.849 501.846ZM690.236 505.611L690 505.479L690.236 505.611ZM646.251 499.369C643.722 493.625 639.056 487.75 633.428 483.148C627.8 478.547 621.185 475.2 614.745 474.547L614.69 475.085C620.992 475.724 627.51 479.008 633.085 483.567C638.66 488.124 643.267 493.934 645.756 499.587L646.251 499.369ZM656.026 499.784C655.121 501.357 653.1 502.199 651.054 502.157C649.013 502.114 647.054 501.192 646.251 499.369L645.756 499.587C646.672 501.666 648.871 502.652 651.043 502.697C653.211 502.743 655.459 501.854 656.495 500.053L656.026 499.784ZM704.338 478.395C696.606 476.652 686.717 478.204 677.681 482.075C668.645 485.947 660.414 492.157 656.026 499.784L656.495 500.053C660.807 492.56 668.926 486.414 677.894 482.572C686.863 478.73 696.633 477.212 704.219 478.922L704.338 478.395ZM692.966 508.572C700.008 494.612 703.131 486.841 704.545 478.705L704.012 478.612C702.613 486.664 699.521 494.376 692.484 508.328L692.966 508.572ZM662.954 522.906C664.487 523.79 666.692 524.2 669.224 524.116C671.762 524.031 674.652 523.448 677.574 522.321C683.417 520.065 689.411 515.62 692.966 508.572L692.484 508.328C688.999 515.236 683.121 519.6 677.379 521.816C674.509 522.924 671.678 523.493 669.206 523.575C666.729 523.658 664.637 523.252 663.224 522.437L662.954 522.906ZM655.551 517.553C657.295 519.645 659.625 521.364 662.975 522.917L663.202 522.426C659.905 520.898 657.647 519.223 655.966 517.207L655.551 517.553ZM645.682 517.142C648.458 514.664 652.909 514.386 655.551 517.553L655.966 517.207C653.087 513.754 648.274 514.104 645.322 516.739L645.682 517.142ZM640.121 521.198L645.661 517.159L645.343 516.722L639.802 520.762L640.121 521.198ZM615.652 515.114C618.202 518.056 622.174 520.462 626.564 521.697C630.955 522.931 635.791 523 640.065 521.23L639.858 520.73C635.721 522.443 631.014 522.386 626.71 521.176C622.405 519.966 618.531 517.609 616.061 514.76L615.652 515.114ZM598.482 474.157C599.015 479.556 601.283 487.456 604.422 495.163C607.561 502.87 611.586 510.423 615.652 515.114L616.061 514.76C612.052 510.134 608.053 502.646 604.923 494.959C601.793 487.274 599.545 479.429 599.02 474.104L598.482 474.157ZM614.764 474.549C608.742 473.498 604.766 473.16 602.273 473.17C601.027 473.175 600.141 473.266 599.55 473.403C599.255 473.471 599.021 473.554 598.849 473.651C598.687 473.742 598.527 473.878 598.486 474.076L599.016 474.185C599.009 474.22 598.996 474.189 599.115 474.121C599.224 474.06 599.403 473.992 599.672 473.93C600.207 473.806 601.049 473.715 602.275 473.71C604.724 473.701 608.665 474.033 614.671 475.082L614.764 474.549ZM633.548 519.275C638.213 519.475 642.176 517.659 644.288 514.385C646.402 511.106 646.62 506.433 643.933 501.006L643.448 501.246C646.076 506.552 645.818 511.015 643.833 514.092C641.847 517.172 638.087 518.929 633.571 518.735L633.548 519.275ZM611.85 502.301C616.695 513.008 624.238 518.876 633.548 519.275L633.571 518.735C624.519 518.347 617.129 512.655 612.343 502.078L611.85 502.301ZM613.1 478.811C610.737 478.71 609.122 479.455 608.151 480.855C607.195 482.235 606.903 484.199 607.05 486.461C607.343 490.991 609.408 496.904 611.85 502.301L612.343 502.078C609.906 496.693 607.876 490.854 607.589 486.427C607.446 484.21 607.743 482.394 608.596 481.163C609.435 479.953 610.848 479.256 613.076 479.351L613.1 478.811ZM643.933 501.006C640.517 494.108 635.126 488.661 629.438 484.889C623.754 481.121 617.752 479.011 613.1 478.811L613.076 479.351C617.605 479.546 623.513 481.609 629.139 485.34C634.762 489.068 640.082 494.447 643.448 501.246L643.933 501.006ZM658.618 501.706C655.476 506.882 655.292 511.557 657.118 515.004C658.942 518.448 662.735 520.597 667.4 520.797L667.423 520.257C662.907 520.063 659.312 517.99 657.596 514.751C655.883 511.516 656.008 507.048 659.08 501.986L658.618 501.706ZM691.239 482.233C686.586 482.033 680.426 483.621 674.44 486.889C668.45 490.16 662.612 495.125 658.618 501.706L659.08 501.986C663.017 495.501 668.777 490.597 674.699 487.364C680.624 484.129 686.687 482.579 691.216 482.773L691.239 482.233ZM690.472 505.744C693.367 500.575 695.931 494.861 696.611 490.374C696.951 488.132 696.828 486.15 695.994 484.694C695.147 483.215 693.601 482.334 691.239 482.233L691.216 482.773C693.444 482.869 694.793 483.684 695.525 484.962C696.269 486.262 696.409 488.097 696.077 490.292C695.412 494.679 692.889 500.322 690 505.479L690.472 505.744ZM667.4 520.797C676.71 521.196 684.728 515.996 690.472 505.744L690 505.479C684.326 515.607 676.475 520.645 667.423 520.257L667.4 520.797Z" fill="#F38F12"/>
<path d="M643.691 501.126C649.005 511.859 642.74 519.399 633.559 519.005C624.379 518.611 616.912 512.831 612.096 502.19C607.217 491.407 603.907 478.687 613.088 479.081C622.269 479.475 636.908 487.429 643.691 501.126Z" fill="#EF9603" fill-opacity="0.4"/>
<path d="M658.849 501.846C652.635 512.084 658.23 520.133 667.411 520.527C676.592 520.921 684.526 515.802 690.236 505.612C696.021 495.286 700.408 482.897 691.227 482.503C682.046 482.109 666.779 488.779 658.849 501.846Z" fill="#EF9603" fill-opacity="0.4"/>
<ellipse cx="650.811" cy="525.193" rx="4.9002" ry="6.30026" transform="rotate(-11.6193 650.811 525.193)" fill="#EF9603"/>
<path d="M696.496 401.179C699.381 401.272 706.409 402.978 711.444 409.052" stroke="white" stroke-width="2.55954" stroke-linecap="round"/>
<path d="M572.086 540.154C569.947 538.217 565.691 532.369 565.782 524.479" stroke="white" stroke-width="2.55954" stroke-linecap="round"/>
<path d="M692.17 393.954C694.283 393.431 699.687 393.175 704.403 396.341" stroke="white" stroke-width="2.55954" stroke-linecap="round"/>
<path d="M560.636 533.227C559.516 531.361 557.687 526.269 559.331 520.832" stroke="white" stroke-width="2.55954" stroke-linecap="round"/>
<path d="M748.755 756.075C741.706 740.64 753.857 707.141 760.814 692.321C761.297 670.395 742.062 667.463 724.398 652.353C706.734 637.242 671.989 650.435 646.79 644.163C621.591 637.891 614.243 665.113 589.648 690.516C565.054 715.918 590.167 769.144 612.06 769.648C633.953 770.152 677.904 801.282 704.004 798.918C730.103 796.555 757.565 775.369 748.755 756.075Z" stroke="white" stroke-width="5"/>
<path d="M758.35 771.388C751.302 755.953 763.453 722.454 770.41 707.634C770.892 685.708 751.658 682.776 733.994 667.665C716.33 652.555 681.585 665.747 656.386 659.476C631.186 653.204 623.838 680.426 599.244 705.828C574.65 731.23 599.763 784.457 621.655 784.961C643.548 785.465 687.499 816.595 713.599 814.231C739.699 811.867 767.161 790.681 758.35 771.388Z" stroke="white" stroke-width="5"/>
<circle cx="686.586" cy="717.008" r="36.1419" transform="rotate(74.1871 686.586 717.008)" fill="#FDB035"/>
<circle cx="861.525" cy="764.377" r="33.6419" transform="rotate(74.1871 861.525 764.377)" stroke="#FFDD00" stroke-width="5"/>
<ellipse cx="729.342" cy="905.112" rx="26.3836" ry="26.0222" transform="rotate(74.1871 729.342 905.112)" fill="#FDB035"/>
<circle cx="726.634" cy="916.773" r="24.0222" transform="rotate(74.1871 726.634 916.773)" stroke="#FFDD00" stroke-width="4"/>
<circle cx="692.584" cy="720.944" r="22.2151" transform="rotate(74.1871 692.584 720.944)" stroke="#FFDD00" stroke-width="4"/>
<path d="M795.879 706.339C804.746 684.595 852.779 674.698 875.687 672.467C913.317 672.703 966.452 709.117 981.73 757.754C997.007 806.392 951.314 814.825 917.064 855.703C882.814 896.581 840.773 850.264 817.11 842.316C793.448 834.368 773.694 811.039 786.72 781.431C799.746 751.823 784.795 733.519 795.879 706.339Z" stroke="white" stroke-width="5"/>
<path d="M806.976 728.399C815.843 706.655 863.876 696.758 886.784 694.527C924.414 694.763 977.549 731.177 992.827 779.814C1008.1 828.452 962.411 836.885 928.161 877.763C893.911 918.641 851.869 872.324 828.207 864.376C804.545 856.428 784.791 833.098 797.816 803.491C810.842 773.883 795.892 755.579 806.976 728.399Z" stroke="white" stroke-width="5"/>
<path d="M807.055 884.931C845.681 896.344 844.619 920.479 839.26 931.12C833.082 942.564 830.377 967.278 789.996 1004.09C749.616 1040.9 735.092 969.46 697.338 968.179C659.584 966.897 645.845 912.341 665.5 897.082C685.154 881.822 673.242 849.843 728.003 838.61C782.764 827.378 758.774 870.665 807.055 884.931Z" stroke="white" stroke-width="5"/>
<path d="M803.601 907.22C842.25 918.715 841.214 942.939 835.864 953.613C829.696 965.092 827.016 989.895 786.662 1026.8C746.308 1063.7 731.705 991.986 693.938 990.66C656.172 989.334 642.372 934.563 662.016 919.268C681.66 903.972 669.712 871.862 724.477 860.646C779.242 849.429 755.291 892.851 803.601 907.22Z" stroke="white" stroke-width="5"/>
<path d="M701.437 188.686C718.045 192.162 737.815 221.809 745.624 236.198C762.994 249.588 776.76 235.838 799.401 230.574C822.043 225.309 832.021 189.509 852.013 172.936C872.005 156.363 854.441 134.305 848.569 99.4383C842.697 64.5718 784.946 53.2342 771.559 70.5645C758.172 87.8948 707.044 104.828 693.472 127.247C679.9 149.665 680.677 184.34 701.437 188.686Z" stroke="white" stroke-width="5"/>
<path d="M683.417 187.333C700.025 190.809 719.795 220.457 727.604 234.846C744.974 248.235 758.74 234.485 781.381 229.221C804.023 223.957 814.001 188.156 833.993 171.583C853.984 155.01 836.421 132.952 830.549 98.0857C824.676 63.2193 766.926 51.8816 753.539 69.2119C740.152 86.5423 689.024 103.476 675.452 125.894C661.88 148.312 662.657 182.988 683.417 187.333Z" stroke="white" stroke-width="5"/>
<circle cx="769.757" cy="161.789" r="36.1419" transform="rotate(-159.447 769.757 161.789)" fill="#FDB035"/>
<circle cx="638.632" cy="287.091" r="36.1419" transform="rotate(-159.447 638.632 287.091)" fill="#FDB035"/>
<circle cx="627.887" cy="274.571" r="33.6419" transform="rotate(-159.447 627.887 274.571)" stroke="#FFDD00" stroke-width="5"/>
<ellipse cx="592.935" cy="84.6841" rx="26.3836" ry="26.0222" transform="rotate(-159.447 592.935 84.6841)" fill="#FDB035"/>
<circle cx="585.151" cy="75.5898" r="24.0222" transform="rotate(-159.447 585.151 75.5898)" stroke="#FFDD00" stroke-width="4"/>
<circle cx="763.032" cy="164.285" r="22.2151" transform="rotate(-159.447 763.032 164.285)" stroke="#FFDD00" stroke-width="4"/>
<path d="M713.545 256.123C725.796 276.156 705.286 320.703 693.499 340.472C670.996 370.634 610.169 391.83 561.945 375.293C513.721 358.756 534.023 316.962 521.415 265.144C508.806 213.326 571.03 206.935 591.461 192.594C611.891 178.253 642.39 176.178 658.509 204.223C674.627 232.267 698.231 231.082 713.545 256.123Z" stroke="white" stroke-width="5"/>
<path d="M689.202 251.978C701.453 272.011 680.942 316.558 669.156 336.328C646.653 366.489 585.826 387.685 537.602 371.148C489.378 354.611 509.68 312.817 497.071 260.999C484.463 209.181 546.687 202.79 567.118 188.449C587.548 174.108 618.047 172.034 634.165 200.078C650.283 228.123 673.887 226.937 689.202 251.978Z" stroke="white" stroke-width="5"/>
<path d="M563.107 159.229C531.015 183.564 512.209 168.399 506.818 157.774C501.266 146.014 482.969 129.182 477.27 74.839C471.572 20.496 537.71 51.1594 561.128 21.5181C584.546 -8.12318 636.622 13.162 637.257 38.0365C637.891 62.9111 670.705 72.2813 647.28 123.037C623.855 173.793 603.223 128.809 563.107 159.229Z" stroke="white" stroke-width="5"/>
<path d="M547.207 143.232C515.034 167.537 496.143 152.34 490.719 141.703C485.133 129.93 466.75 113.065 460.96 58.688C455.171 4.31091 521.58 35.076 545.041 5.45078C568.502 -24.1744 620.788 -2.81061 621.457 22.077C622.126 46.9646 655.067 56.3824 631.627 107.133C608.187 157.883 587.423 112.849 547.207 143.232Z" stroke="white" stroke-width="5"/>
<path d="M995.545 529.123C1007.8 549.156 987.286 593.703 975.499 613.472C952.996 643.634 892.169 664.83 843.945 648.293C795.721 631.756 816.023 589.962 803.415 538.144C790.806 486.326 853.03 479.935 873.461 465.594C893.891 451.253 924.39 449.178 940.509 477.223C956.627 505.267 980.231 504.082 995.545 529.123Z" stroke="white" stroke-width="5"/>
<path d="M971.202 524.978C983.453 545.011 962.942 589.558 951.156 609.328C928.653 639.489 867.826 660.685 819.602 644.148C771.378 627.611 791.68 585.817 779.071 533.999C766.463 482.181 828.687 475.79 849.118 461.449C869.548 447.108 900.047 445.034 916.165 473.078C932.283 501.123 955.887 499.937 971.202 524.978Z" stroke="white" stroke-width="5"/>
<path d="M845.107 432.229C813.015 456.564 794.209 441.399 788.818 430.774C783.266 419.014 764.969 402.182 759.27 347.839C753.572 293.496 819.71 324.159 843.128 294.518C866.546 264.877 918.622 286.162 919.257 311.037C919.891 335.911 952.705 345.281 929.28 396.037C905.855 446.793 885.223 401.809 845.107 432.229Z" stroke="white" stroke-width="5"/>
<path d="M829.207 416.232C797.034 440.537 778.143 425.34 772.719 414.703C767.133 402.93 748.75 386.065 742.96 331.688C737.171 277.311 803.58 308.076 827.041 278.451C850.502 248.826 902.788 270.189 903.457 295.077C904.126 319.965 937.067 329.382 913.627 380.133C890.187 430.883 869.423 385.849 829.207 416.232Z" stroke="white" stroke-width="5"/>
<path d="M309.231 25.8628C304.763 42.2318 273.98 60.1832 259.147 67.1127C244.738 83.6458 257.635 98.2136 261.528 121.131C265.421 144.048 300.557 156.161 315.898 177.113C331.238 198.065 354.313 181.86 389.469 178.095C424.625 174.33 439.416 117.366 422.922 102.961C406.428 88.5565 392.6 36.5029 371.038 21.607C349.477 6.71107 314.817 5.40146 309.231 25.8628Z" stroke="white" stroke-width="5"/>
<path d="M311.665 7.95641C307.196 24.3255 276.414 42.2768 261.581 49.2063C247.171 65.7394 260.068 80.3072 263.962 103.224C267.855 126.141 302.991 138.254 318.331 159.207C333.672 180.159 356.746 163.954 391.903 160.189C427.059 156.424 441.849 99.4598 425.356 85.055C408.862 70.6501 395.034 18.5965 373.472 3.70059C351.91 -11.1953 317.251 -12.5049 311.665 7.95641Z" stroke="white" stroke-width="5"/>
<circle cx="331.971" cy="95.6769" r="36.1419" transform="rotate(-65.9994 331.971 95.6769)" fill="#FDB035"/>
<circle cx="214.781" cy="-42.7471" r="36.1419" transform="rotate(-65.9994 214.781 -42.7471)" fill="#FDB035"/>
<circle cx="329.884" cy="88.8132" r="22.2151" transform="rotate(-65.9994 329.884 88.8132)" stroke="#FFDD00" stroke-width="4"/>
<path d="M241.188 33.8929C220.455 44.9175 177.222 21.765 158.197 8.8107C129.443 -15.4648 111.943 -77.457 131.351 -124.599C150.758 -171.741 191.256 -148.962 243.738 -158.432C296.22 -167.901 298.858 -105.406 311.944 -84.1495C325.031 -62.8935 325.267 -32.3251 296.304 -17.9226C267.341 -3.52015 267.105 20.1123 241.188 33.8929Z" stroke="white" stroke-width="5"/>
<path d="M246.789 9.84308C226.055 20.8676 182.823 -2.28486 163.798 -15.2392C135.044 -39.5147 117.544 -101.507 136.952 -148.649C156.359 -195.791 196.857 -173.012 249.339 -182.482C301.821 -191.951 304.459 -129.455 317.545 -108.199C330.632 -86.9434 330.868 -56.375 301.905 -41.9725C272.942 -27.57 272.706 -3.93759 246.789 9.84308Z" stroke="white" stroke-width="5"/>
<path d="M346.954 -110.445C324.592 -143.943 340.861 -161.803 351.791 -166.545C363.863 -171.379 381.766 -188.632 436.353 -191.052C490.94 -193.472 456.355 -129.298 484.534 -104.139C512.714 -78.9812 488.335 -28.2791 463.467 -29.1419C438.6 -30.0046 427.273 2.18643 378.018 -24.2482C328.762 -50.6829 374.906 -68.573 346.954 -110.445Z" stroke="white" stroke-width="5"/>
<path d="M363.878 -125.355C341.551 -158.931 357.857 -176.874 368.801 -181.648C380.889 -186.516 398.829 -203.852 453.456 -206.361C508.082 -208.87 473.379 -144.431 501.54 -119.231C529.701 -94.0313 505.231 -43.1245 480.348 -43.9533C455.466 -44.7821 444.084 -12.4673 394.835 -38.9169C345.586 -65.3665 391.787 -83.3845 363.878 -125.355Z" stroke="white" stroke-width="5"/>
<path d="M244.51 337.005C235.682 270.91 252.683 253.312 304.258 251.755C311.874 251.525 318.857 247.312 322.561 240.653C347.551 195.722 365.106 194.236 394.15 219.197C397.465 222.046 401.564 223.856 405.893 224.457C433.672 228.309 442.907 239.095 442.533 266.438C442.424 274.453 446.446 281.986 453.175 286.343C482.418 305.275 486.669 324.966 471.165 365.258C469.433 369.756 469.255 374.757 470.661 379.367C487.953 436.059 470.801 449.905 418.724 454.297C414.28 454.671 410.043 456.455 406.637 459.335C358.212 500.272 333.08 487.295 284.151 442.769C281.599 440.446 278.42 438.786 275.07 437.958C199.391 419.235 213.345 396.569 241.551 350.757L241.713 350.494C244.188 346.473 245.136 341.685 244.51 337.005Z" fill="#F7F7F7"/>
<circle cx="362.052" cy="351.452" r="53.9219" fill="#EF9603"/>
<ellipse cx="367.5" cy="347" rx="42.5" ry="42" fill="#FFDD00"/>
<ellipse cx="365.583" cy="374.007" rx="3.04" ry="2.47932" fill="#EF9603"/>
<ellipse cx="392.606" cy="370.288" rx="3.04" ry="2.47932" fill="#EF9603"/>
<path d="M371.326 374.386C379.787 377.651 383.215 376.911 387.874 372.148" stroke="#EF9603" stroke-width="2"/>
<path d="M405.642 393.231C406.282 395.731 399.708 417.324 388.038 419.839C376.368 422.353 356.535 416.237 355.895 413.737C355.295 411.394 370.099 409.999 381.568 407.761C383.063 407.469 384.529 407.05 385.905 406.426C397.612 401.124 405.037 390.87 405.642 393.231Z" fill="#FCDB7D"/>
<path d="M361.404 290.721C367.184 286.896 412.07 276.557 423.682 295.657C435.294 314.758 434.019 350.313 428.239 354.138C422.737 357.779 419.307 330.852 408.975 311.778C407.941 309.868 406.628 308.13 405.019 306.713C386.534 290.442 355.865 294.387 361.404 290.721Z" fill="#FCDB7D"/>
<path d="M370.944 219.812C382.351 225.78 448.369 273.923 440.075 288.395C431.78 302.868 378.507 297.069 367.1 291.101C376.197 282.461 390.567 284.816 399.929 277.578C403.968 274.456 405.207 269.07 403.576 264.408C396.064 242.924 360.759 214.483 370.944 219.812Z" fill="#FCDB7D"/>
<circle cx="374.808" cy="327.936" r="13.291" fill="#F7F7F7"/>
<path d="M29.2823 405.76C18.9819 444.201 36.8266 491.67 78.5856 502.859C99.7564 508.532 119.554 506.976 136.329 497.67C153.115 488.359 167.13 471.147 176.445 445.025C185.732 418.983 186.123 388.564 178.6 363.073C171.066 337.544 155.745 317.369 133.958 311.056C107.444 303.375 85.4257 312 67.9045 330.053C50.2976 348.194 37.3045 375.821 29.2823 405.76Z" fill="#D05F01" stroke="#EF9603" stroke-width="4"/>
<path d="M73.9612 496.217C54.4267 490.982 39.4365 475.828 30.6842 457.159C21.9311 438.489 19.3063 416.094 24.683 396.028C32.8363 365.599 48.5123 340.428 67.0164 324.109C85.4931 307.814 107.029 300.17 126.723 305.447C146.606 310.774 159.741 331.024 166.299 355.414C172.887 379.92 173.05 409.283 166.425 434.007C153.121 483.657 112.844 506.635 73.9612 496.217Z" fill="#FEFEFD" stroke="#EF9603" stroke-width="4"/>
<path d="M37.8384 409.117C31.5663 440.298 34.6877 483.934 76.3063 495.086C104.89 502.745 147.741 481.985 162.379 442.488C177.017 402.991 172.167 334.07 139.256 321.953C106.344 309.835 54.1215 328.169 37.8384 409.117Z" fill="#FAF0D7"/>
<ellipse rx="32.1077" ry="40.8919" transform="matrix(-0.965926 -0.258819 -0.258819 0.965926 104.842 406.084)" fill="#FEC00A"/>
<ellipse rx="27.5642" ry="35.1367" transform="matrix(-0.965926 -0.258819 -0.258819 0.965926 104.124 406.143)" fill="#FFDD00"/>
<ellipse rx="4.84645" ry="7.57257" transform="matrix(-0.965926 -0.258819 -0.258819 0.965926 92.2981 398.3)" fill="#EF9603"/>
<ellipse rx="1.81742" ry="3.02903" transform="matrix(-0.965926 -0.258819 -0.258819 0.965926 91.6765 395.939)" fill="white"/>
<ellipse rx="4.84645" ry="7.57257" transform="matrix(-0.965926 -0.258819 -0.258819 0.965926 114.214 403.958)" fill="#EF9603"/>
<ellipse rx="2.12032" ry="2.72613" transform="matrix(-0.965926 -0.258819 -0.258819 0.965926 113.807 401.968)" fill="white"/>
<ellipse cx="99.3143" cy="416.593" rx="4.24064" ry="5.45225" transform="rotate(15 99.3143 416.593)" fill="#EF9603"/>
<path d="M220.178 522.747C261.672 497.358 320.254 514.964 344.359 526.94C363.073 536.239 399.738 549.246 463.688 517.42C527.639 485.593 551.712 562.417 526.876 587.919C500.261 615.247 518.212 625.889 526.876 635.07C576.087 680.18 503.426 762.92 464.613 725.857C433.562 696.207 402.926 777.542 325.992 729.371C294.687 697.748 260.186 761.923 207.24 737.872C188.527 729.371 115.404 645.724 167.271 621.808C208.765 602.676 208.395 576.245 194.187 568.311C185.561 563.701 178.684 548.136 220.178 522.747Z" fill="#EF9603" stroke="#EF9603" stroke-width="1.1288"/>
<path d="M235.466 513.935C276.012 488.65 333.257 506.184 356.811 518.112C375.098 527.372 410.926 540.326 473.416 508.63C535.906 476.933 559.431 553.443 535.161 578.841C509.154 606.058 526.695 616.656 535.161 625.799C583.248 670.725 512.247 753.127 474.319 716.216C443.977 686.686 414.042 767.689 338.864 719.715C308.273 688.221 274.56 752.134 222.823 728.181C204.537 719.715 133.084 636.41 183.767 612.592C224.313 593.538 223.952 567.214 210.068 559.313C201.639 554.722 194.919 539.22 235.466 513.935Z" fill="white" stroke="#EF9603" stroke-width="4"/>
<ellipse cx="279.715" cy="626.702" rx="45.1519" ry="55.5368" fill="#FDB035"/>
<ellipse cx="279.5" cy="629" rx="35.5" ry="42" fill="#FFDD00"/>
<ellipse cx="266.729" cy="598.472" rx="11.5" ry="5.5" transform="rotate(-31.7292 266.729 598.472)" fill="#F7F7F7"/>
<path d="M257.34 616L273.358 622.411C273.836 622.602 273.832 623.28 273.351 623.465L253 631.283" stroke="#EF9603" stroke-width="1.88683"/>
<path d="M304.133 616L288.114 622.411C287.636 622.602 287.641 623.28 288.122 623.465L308.473 631.283" stroke="#EF9603" stroke-width="1.88683"/>
<path d="M286.736 635.425C286.736 636.99 284.57 641.863 280.659 642.164C277.336 642.164 274.642 639.147 274.642 635.425C274.642 631.704 277.336 628.687 280.659 628.687C282.765 628.687 286.736 632.838 286.736 635.425Z" fill="#EF9603"/>
<ellipse cx="450.074" cy="600.202" rx="59.7134" ry="38.8398" transform="rotate(-92.0973 450.074 600.202)" fill="#FDB035"/>
<ellipse cx="452.408" cy="599.638" rx="47.5105" ry="31.6904" transform="rotate(-92.0973 452.408 599.638)" fill="#FFDD00"/>
<path d="M434.654 594.447C438.479 582.834 442.426 582.765 447.29 593.456" stroke="#EF9603" stroke-width="2.73652" stroke-linecap="round"/>
<path d="M460.521 592.419C465.299 587.842 469.568 587.597 474.229 591.344" stroke="#EF9603" stroke-width="2.73652" stroke-linecap="round"/>
<path d="M464.647 600.548C464.759 601.974 464.589 603.409 464.146 604.77C463.703 606.131 462.997 607.392 462.067 608.48C461.137 609.568 460.003 610.462 458.727 611.111C457.452 611.761 456.061 612.152 454.634 612.264C453.208 612.376 451.773 612.206 450.412 611.763C449.051 611.321 447.79 610.614 446.702 609.684C445.614 608.755 444.72 607.62 444.071 606.344C443.421 605.069 443.03 603.678 442.918 602.252L453.782 601.4L464.647 600.548Z" fill="#EF9603"/>
<ellipse cx="440.028" cy="567.014" rx="11.5" ry="5.5" transform="rotate(-44.9092 440.028 567.014)" fill="#F7F7F7"/>
</svg>
