<svg width="1044" height="1383" viewBox="0 0 1044 1383" fill="none" xmlns="http://www.w3.org/2000/svg">
<path d="M236.445 488.498C246.274 525.182 229.241 570.459 189.418 581.13C169.215 586.543 150.331 585.057 134.332 576.182C118.323 567.302 104.949 550.883 96.0574 525.948C87.1941 501.093 86.821 472.058 94.001 447.729C101.192 423.361 115.81 404.125 136.579 398.108C161.865 390.782 182.862 399.005 199.578 416.228C216.38 433.54 228.785 459.91 236.445 488.498Z" fill="#EF9603" stroke="#FDB035" stroke-width="4"/>
<path d="M193.881 574.959C212.571 569.951 226.906 555.454 235.274 537.606C243.642 519.756 246.153 498.344 241.011 479.156C233.22 450.078 218.239 426.02 200.55 410.421C182.889 394.845 162.29 387.526 143.44 392.577C124.402 397.678 111.843 417.059 105.578 440.365C99.2811 463.786 99.1256 491.848 105.457 515.478C118.175 562.94 156.688 584.925 193.881 574.959Z" fill="#FEFEFD" stroke="#FDB035" stroke-width="4"/>
<mask id="mask0" mask-type="alpha" maskUnits="userSpaceOnUse" x="79" y="376" width="181" height="215">
<path d="M237.148 480.191C242.024 498.39 239.656 518.836 231.652 535.908C223.648 552.981 210.117 566.467 192.846 571.095C158.118 580.4 121.56 560.118 109.321 514.442C103.175 491.504 103.323 464.158 109.441 441.404C115.589 418.535 127.553 400.975 144.476 396.441C161.586 391.856 180.846 398.376 197.905 413.421C214.936 428.441 229.536 451.783 237.148 480.191Z" fill="#FEFEFD" stroke="#FDB035" stroke-width="4"/>
</mask>
<g mask="url(#mask0)">
<path d="M228.359 491.682C234.35 521.463 231.369 563.141 191.618 573.792C164.317 581.108 123.389 561.279 109.408 523.555C95.4267 485.83 100.059 420.002 131.493 408.429C162.928 396.855 212.807 414.366 228.359 491.682Z" fill="#FAF0D7"/>
</g>
<path d="M151.483 448.088C151.483 455.679 160.683 469.167 170.919 468.936" stroke="#FEC00A" stroke-width="4" stroke-linecap="round" stroke-linejoin="round"/>
<path d="M158.467 451.732C156.645 456.59 161.514 466.591 168.649 468.331" stroke="#FEC00A" stroke-width="4" stroke-linecap="round" stroke-linejoin="round"/>
<path d="M164.236 448.392C161.807 452.036 161.272 463.253 167.182 467.612" stroke="#FEC00A" stroke-width="4" stroke-linecap="round" stroke-linejoin="round"/>
<ellipse cx="175.696" cy="498.492" rx="32.1862" ry="40.9919" transform="rotate(-15 175.696 498.492)" fill="#FEC00A"/>
<ellipse cx="180.305" cy="497.309" rx="27.6316" ry="35.2226" transform="rotate(-15 180.305 497.309)" fill="#FFDD00"/>
<ellipse cx="190.68" cy="487.927" rx="4.85829" ry="7.59109" transform="rotate(-15 190.68 487.927)" fill="#EF9603"/>
<ellipse cx="191.303" cy="485.56" rx="1.82186" ry="3.03643" transform="rotate(-15 191.303 485.56)" fill="white"/>
<path d="M177.843 505.435C183.144 504.822 185.346 503.65 188.754 500.999" stroke="#EF9603" stroke-width="3" stroke-linecap="round"/>
<ellipse cx="166.672" cy="496.875" rx="4.85829" ry="7.59109" transform="rotate(-15 166.672 496.875)" fill="#EF9603"/>
<ellipse cx="167.08" cy="494.879" rx="2.1255" ry="2.73279" transform="rotate(-15 167.08 494.879)" fill="white"/>
<path d="M553.099 1178.74C570.627 1176.26 607.175 1165.17 613.142 1140.7" stroke="#EF9603" stroke-width="4.47525" stroke-linecap="round" stroke-linejoin="round"/>
<path d="M469.169 1268.99C470.065 1277.78 465.665 1296.98 440.898 1303.53" stroke="#F38F12" stroke-width="4.47525" stroke-linecap="round"/>
<path d="M503.125 1268.99C510.335 1274.09 521.921 1290.03 510.584 1313" stroke="#F38F12" stroke-width="4.47525" stroke-linecap="round"/>
<path d="M533.286 1118.31C515.981 1120.97 486.139 1099.48 473.381 1088.41C451.748 1081.77 443.429 1100.04 423.46 1113.33C403.491 1126.61 406.82 1164.82 393.508 1188.07C380.195 1211.33 405.156 1226.28 423.46 1257.84C441.765 1289.4 501.67 1279.43 508.326 1257.84C514.982 1236.24 558.247 1201.36 563.239 1174.79C568.231 1148.21 554.919 1114.99 533.286 1118.31Z" fill="#EF9603" stroke="#FDB035" stroke-width="3.72937"/>
<path d="M547.458 1118.31C530.152 1120.97 500.31 1099.48 487.553 1088.41C465.92 1081.77 457.601 1100.04 437.632 1113.33C417.663 1126.61 420.991 1164.82 407.679 1188.07C394.367 1211.33 419.327 1226.28 437.632 1257.84C455.936 1289.4 515.841 1279.43 522.498 1257.84C529.154 1236.24 572.419 1201.36 577.411 1174.79C582.403 1148.21 569.091 1114.99 547.458 1118.31Z" fill="white" stroke="#FDB035" stroke-width="3.72937"/>
<ellipse cx="487.835" cy="1182.1" rx="51.8383" ry="60.7888" fill="#FDB035"/>
<ellipse cx="496.04" cy="1181.73" rx="39.1584" ry="46.2442" fill="#FFDD00"/>
<ellipse cx="515.059" cy="1175.39" rx="5.967" ry="9.32343" fill="#EF9603"/>
<ellipse cx="516.551" cy="1172.78" rx="2.23762" ry="3.72937" fill="white"/>
<path d="M494.265 1192.08C500.748 1193.03 503.733 1192.34 508.619 1190.28" stroke="#EF9603" stroke-width="2.23762" stroke-linecap="round"/>
<ellipse cx="483.733" cy="1178.37" rx="5.967" ry="9.32343" fill="#EF9603"/>
<ellipse cx="484.851" cy="1176.13" rx="2.61056" ry="3.35644" fill="white"/>
<path d="M403.178 1120.32C403.924 1117.33 407.28 1110.4 414.739 1106.52" stroke="#FEC00A" stroke-width="2.9835" stroke-linecap="round"/>
<path d="M533.706 1256.81C534.49 1253.84 537.935 1246.94 545.442 1243.16" stroke="#FEC00A" stroke-width="2.9835" stroke-linecap="round"/>
<path d="M543.402 1257.67C543.995 1255.96 546.615 1252 552.353 1249.84" stroke="#FEC00A" stroke-width="2.9835" stroke-linecap="round"/>
<path d="M394.682 1123.2C394.611 1120.88 395.56 1115.19 399.917 1110.99" stroke="#FEC00A" stroke-width="2.9835" stroke-linecap="round"/>
<path d="M667.05 746.097C655.944 756.928 623.403 756.886 608.52 755.512C589.518 761.893 592.91 779.303 585.347 799.141C577.784 818.978 599.811 844.697 602.165 868.26C604.52 891.822 630.187 889.689 659.592 902.915C688.997 916.142 727.045 878.1 720.748 859.162C714.45 840.224 727.706 792.869 717.649 771.21C707.592 749.552 680.932 732.559 667.05 746.097Z" fill="#EF9603" stroke="#FDB035" stroke-width="3.19943"/>
<path d="M726.029 896.85C733.534 895.819 750.132 899.017 756.489 920.055" stroke="#F38F12" stroke-width="3.83932" stroke-linecap="round"/>
<path d="M714.947 841.76C729.046 836.115 757.242 819.423 757.227 797.82" stroke="#EF9603" stroke-width="3.83932" stroke-linecap="round" stroke-linejoin="round"/>
<path d="M642.976 900.572C636.357 904.257 625.01 916.785 632.569 937.422" stroke="#F38F12" stroke-width="3.83932" stroke-linecap="round"/>
<path d="M618.735 849.875C604.072 853.834 571.505 857.431 558.537 840.152" stroke="#EF9603" stroke-width="3.83932" stroke-linecap="round" stroke-linejoin="round"/>
<path d="M682.868 755.671C671.767 766.509 639.186 766.411 624.283 765.008C605.268 771.373 608.694 788.83 601.156 808.702C593.618 828.574 615.715 854.391 618.112 878.014C620.51 901.636 646.205 899.542 675.668 912.849C705.131 926.157 743.161 888.09 736.823 869.096C730.486 850.102 743.678 802.657 733.572 780.93C723.466 759.203 696.744 742.124 682.868 755.671Z" fill="white" stroke="#FDB035" stroke-width="3.19943"/>
<ellipse cx="666.804" cy="833.532" rx="44.4721" ry="52.1507" transform="rotate(-13.5017 666.804 833.532)" fill="#FDB035"/>
<ellipse cx="665.012" cy="834.291" rx="33.594" ry="39.6729" transform="rotate(-13.5017 665.012 834.291)" fill="#FFDD00"/>
<ellipse rx="5.11909" ry="7.99857" transform="matrix(-0.921446 0.388507 0.388507 0.921446 679.223 836.834)" fill="#EF9603"/>
<ellipse rx="5.11909" ry="7.99857" transform="matrix(-0.921446 0.388507 0.388507 0.921446 653.465 844.916)" fill="#EF9603"/>
<circle cx="652.209" cy="842.237" r="2.2396" transform="rotate(-48.7088 652.209 842.237)" fill="white"/>
<circle cx="677.987" cy="834.219" r="2.2396" transform="rotate(-48.7088 677.987 834.219)" fill="white"/>
<path fill-rule="evenodd" clip-rule="evenodd" d="M625.417 822.557C636.83 819.952 652.043 826.368 659.722 834.773C662.351 837.65 668.039 835.646 668.734 832.156C671.85 816.518 689.832 801.194 704.108 799.707C705.256 807.129 704.827 814.742 702.809 828.887C700.792 843.032 687.395 851.087 681.298 849.866C677.969 849.503 675.487 848.704 673.403 847.426C670.045 845.366 666.125 846.992 664.391 850.043L660.774 855.161C654.506 860.637 644.171 860.522 638.13 856.973C628.413 851.265 615.439 835.609 611.388 826.631C611.313 826.025 614.385 824.254 625.417 822.557ZM658.201 836.876C665.94 844.618 662.719 852.98 654.652 855.322C646.585 857.664 638.429 854.841 631.148 847.032C623.77 839.119 617.186 829.07 625.252 826.728C633.319 824.385 648.323 826.995 658.201 836.876ZM684.416 846.745C676.349 849.088 669.15 843.752 671.539 833.069C674.589 819.434 685.862 809.194 693.928 806.852C701.995 804.51 701.816 816.522 699.824 827.156C697.858 837.65 692.482 844.403 684.416 846.745Z" fill="#F38F12"/>
<path d="M659.722 834.773L659.922 834.59L659.722 834.773ZM625.417 822.557L625.458 822.824L625.467 822.823L625.477 822.821L625.417 822.557ZM668.734 832.156L668.469 832.103L668.734 832.156ZM704.108 799.707L704.376 799.666L704.336 799.412L704.08 799.439L704.108 799.707ZM681.298 849.866L681.352 849.601L681.34 849.599L681.328 849.597L681.298 849.866ZM673.403 847.426L673.262 847.657L673.403 847.426ZM664.391 850.043L664.612 850.199L664.62 850.188L664.627 850.177L664.391 850.043ZM660.774 855.161L660.952 855.365L660.976 855.344L660.995 855.317L660.774 855.161ZM638.13 856.973L638.267 856.74L638.13 856.973ZM611.388 826.631L611.119 826.664L611.125 826.705L611.141 826.742L611.388 826.631ZM658.201 836.876L658.009 837.067L658.201 836.876ZM631.148 847.032L631.346 846.847L631.346 846.847L631.148 847.032ZM671.539 833.069L671.803 833.128L671.539 833.069ZM699.824 827.156L700.09 827.206L700.09 827.206L699.824 827.156ZM659.922 834.59C656.049 830.351 650.288 826.625 644.065 824.283C637.844 821.943 631.131 820.976 625.356 822.294L625.477 822.821C631.115 821.534 637.716 822.472 643.874 824.789C650.031 827.106 655.717 830.789 659.523 834.955L659.922 834.59ZM668.469 832.103C668.147 833.719 666.651 835.035 664.872 835.594C663.097 836.152 661.142 835.926 659.922 834.59L659.523 834.955C660.931 836.497 663.135 836.707 665.034 836.11C666.93 835.514 668.626 834.082 668.999 832.209L668.469 832.103ZM704.08 799.439C696.868 800.19 688.752 804.428 682.056 810.424C675.358 816.42 670.042 824.209 668.469 832.103L668.999 832.209C670.542 824.465 675.774 816.773 682.416 810.826C689.059 804.879 697.072 800.712 704.136 799.976L704.08 799.439ZM703.077 828.925C705.095 814.776 705.529 807.129 704.376 799.666L703.841 799.749C704.982 807.128 704.559 814.707 702.542 828.848L703.077 828.925ZM681.245 850.131C682.838 850.45 684.872 850.16 687.043 849.345C689.218 848.529 691.554 847.179 693.756 845.346C698.162 841.682 702.057 836.075 703.077 828.925L702.542 828.848C701.544 835.843 697.732 841.336 693.411 844.931C691.25 846.728 688.967 848.046 686.853 848.839C684.734 849.634 682.808 849.893 681.352 849.601L681.245 850.131ZM673.262 847.657C675.388 848.961 677.911 849.769 681.269 850.135L681.328 849.597C678.028 849.238 675.586 848.448 673.545 847.196L673.262 847.657ZM664.627 850.177C666.301 847.228 670.062 845.694 673.262 847.657L673.545 847.196C670.028 845.039 665.948 846.756 664.156 849.909L664.627 850.177ZM660.995 855.317L664.612 850.199L664.171 849.887L660.553 855.005L660.995 855.317ZM637.993 857.206C641.066 859.011 645.214 859.936 649.381 859.721C653.549 859.507 657.762 858.151 660.952 855.365L660.596 854.958C657.518 857.647 653.43 858.971 649.353 859.181C645.275 859.391 641.235 858.483 638.267 856.74L637.993 857.206ZM611.141 826.742C613.182 831.265 617.457 837.446 622.43 843.205C627.402 848.963 633.097 854.33 637.993 857.206L638.267 856.74C633.446 853.908 627.796 848.593 622.839 842.851C617.882 837.111 613.645 830.975 611.634 826.52L611.141 826.742ZM625.376 822.29C619.852 823.14 616.308 824.01 614.15 824.747C613.072 825.116 612.329 825.455 611.855 825.747C611.619 825.893 611.438 826.034 611.315 826.171C611.201 826.299 611.095 826.47 611.119 826.664L611.656 826.598C611.661 826.64 611.636 826.623 611.718 826.532C611.792 826.449 611.925 826.339 612.139 826.207C612.564 825.945 613.265 825.621 614.324 825.259C616.441 824.536 619.95 823.672 625.458 822.824L625.376 822.29ZM654.727 855.582C658.832 854.39 661.741 851.653 662.616 848.19C663.491 844.723 662.309 840.603 658.392 836.685L658.009 837.067C661.832 840.891 662.908 844.823 662.091 848.058C661.273 851.297 658.538 853.912 654.577 855.062L654.727 855.582ZM630.95 847.216C638.28 855.078 646.536 857.96 654.727 855.582L654.577 855.062C646.634 857.369 638.578 854.604 631.346 846.847L630.95 847.216ZM625.177 826.468C623.096 827.072 621.907 828.195 621.473 829.701C621.046 831.183 621.37 832.975 622.158 834.894C623.738 838.735 627.257 843.255 630.95 847.216L631.346 846.847C627.661 842.896 624.199 838.435 622.659 834.688C621.887 832.812 621.616 831.159 621.993 829.851C622.362 828.567 623.376 827.554 625.328 826.987L625.177 826.468ZM658.392 836.685C653.414 831.705 647.148 828.562 641.117 826.957C635.089 825.353 629.27 825.28 625.177 826.468L625.328 826.987C629.301 825.834 635.017 825.894 640.978 827.479C646.934 829.064 653.11 832.166 658.009 837.067L658.392 836.685ZM671.276 833.01C670.066 838.417 671.274 842.529 673.871 844.988C676.464 847.444 680.386 848.197 684.491 847.005L684.34 846.486C680.378 847.636 676.668 846.892 674.242 844.595C671.82 842.301 670.623 838.404 671.803 833.128L671.276 833.01ZM693.853 806.592C689.76 807.781 684.885 810.96 680.654 815.542C676.42 820.128 672.812 826.138 671.276 833.01L671.803 833.128C673.316 826.365 676.87 820.437 681.051 815.909C685.236 811.377 690.03 808.265 694.004 807.112L693.853 806.592ZM700.09 827.206C701.087 821.882 701.638 816.181 700.915 812.091C700.553 810.048 699.866 808.362 698.712 807.339C697.539 806.299 695.934 805.988 693.853 806.592L694.004 807.112C695.956 806.545 697.354 806.857 698.354 807.743C699.372 808.646 700.029 810.188 700.382 812.185C701.088 816.174 700.553 821.796 699.558 827.106L700.09 827.206ZM684.491 847.005C692.682 844.627 698.11 837.77 700.09 827.206L699.558 827.106C697.605 837.53 692.283 844.179 684.34 846.486L684.491 847.005Z" fill="#F38F12"/>
<path d="M658.201 836.876C665.94 844.618 662.719 852.98 654.652 855.322C646.585 857.664 638.429 854.841 631.148 847.032C623.77 839.119 617.185 829.07 625.252 826.728C633.319 824.385 648.323 826.995 658.201 836.876Z" fill="#EF9603" fill-opacity="0.4"/>
<path d="M671.539 833.069C669.15 843.752 676.349 849.088 684.415 846.745C692.482 844.403 697.858 837.65 699.824 827.156C701.816 816.522 701.995 804.51 693.928 806.852C685.862 809.194 674.589 819.434 671.539 833.069Z" fill="#EF9603" fill-opacity="0.4"/>
<ellipse cx="671.402" cy="855.639" rx="4.4792" ry="5.75897" transform="rotate(-30.268 671.402 855.639)" fill="#EF9603"/>
<path d="M674.72 734.878C677.246 734.115 683.832 733.538 689.968 737.328" stroke="#FEC00A" stroke-width="2.55954" stroke-linecap="round"/>
<path d="M607.591 891.608C605.172 890.555 599.777 886.733 597.55 879.874" stroke="#FEC00A" stroke-width="2.55954" stroke-linecap="round"/>
<path d="M668.862 729.885C670.539 728.814 675.145 727.013 680.155 728.376" stroke="#FEC00A" stroke-width="2.55954" stroke-linecap="round"/>
<path d="M595.65 888.954C594.135 887.665 591.062 883.79 590.897 878.6" stroke="#FEC00A" stroke-width="2.55954" stroke-linecap="round"/>
<path d="M748.755 1075.07C741.706 1059.64 753.857 1026.14 760.814 1011.32C761.297 989.395 742.062 986.463 724.398 971.352C706.734 956.242 671.989 969.435 646.79 963.163C621.591 956.891 614.243 984.113 589.648 1009.52C565.054 1034.92 590.167 1088.14 612.06 1088.65C633.953 1089.15 677.904 1120.28 704.004 1117.92C730.103 1115.55 757.565 1094.37 748.755 1075.07Z" stroke="white" stroke-width="5"/>
<path d="M758.35 1090.39C751.302 1074.95 763.453 1041.45 770.41 1026.63C770.892 1004.71 751.658 1001.78 733.994 986.665C716.33 971.555 681.585 984.747 656.386 978.476C631.186 972.204 623.838 999.426 599.244 1024.83C574.65 1050.23 599.763 1103.46 621.655 1103.96C643.548 1104.46 687.499 1135.59 713.599 1133.23C739.699 1130.87 767.161 1109.68 758.35 1090.39Z" stroke="white" stroke-width="5"/>
<circle cx="686.586" cy="1036.01" r="36.1419" transform="rotate(74.1871 686.586 1036.01)" fill="#FDB035"/>
<circle cx="865.235" cy="1067.3" r="36.1419" transform="rotate(74.1871 865.235 1067.3)" fill="#FDB035"/>
<circle cx="861.525" cy="1083.38" r="33.6419" transform="rotate(74.1871 861.525 1083.38)" stroke="#FFDD00" stroke-width="5"/>
<ellipse cx="729.342" cy="1224.11" rx="26.3836" ry="26.0222" transform="rotate(74.1871 729.342 1224.11)" fill="#FDB035"/>
<circle cx="726.634" cy="1235.77" r="24.0222" transform="rotate(74.1871 726.634 1235.77)" stroke="#FFDD00" stroke-width="4"/>
<circle cx="692.584" cy="1039.94" r="22.2151" transform="rotate(74.1871 692.584 1039.94)" stroke="#FFDD00" stroke-width="4"/>
<path d="M795.879 1025.34C804.747 1003.6 852.779 993.698 875.687 991.467C913.318 991.703 966.453 1028.12 981.73 1076.75C997.007 1125.39 951.315 1133.83 917.064 1174.7C882.814 1215.58 840.773 1169.26 817.111 1161.32C793.448 1153.37 773.694 1130.04 786.72 1100.43C799.746 1070.82 784.795 1052.52 795.879 1025.34Z" stroke="white" stroke-width="5"/>
<path d="M806.976 1047.4C815.843 1025.66 863.876 1015.76 886.784 1013.53C924.414 1013.76 977.549 1050.18 992.827 1098.81C1008.1 1147.45 962.411 1155.88 928.161 1196.76C893.911 1237.64 851.87 1191.32 828.207 1183.38C804.545 1175.43 784.791 1152.1 797.817 1122.49C810.842 1092.88 795.892 1074.58 806.976 1047.4Z" stroke="white" stroke-width="5"/>
<path d="M807.055 1203.93C845.681 1215.34 844.619 1239.48 839.26 1250.12C833.082 1261.56 830.377 1286.28 789.996 1323.09C749.616 1359.9 735.092 1288.46 697.338 1287.18C659.584 1285.9 645.845 1231.34 665.5 1216.08C685.154 1200.82 673.242 1168.84 728.003 1157.61C782.764 1146.38 758.774 1189.67 807.055 1203.93Z" stroke="white" stroke-width="5"/>
<path d="M803.601 1226.22C842.25 1237.72 841.213 1261.94 835.864 1272.61C829.696 1284.09 827.016 1308.9 786.662 1345.8C746.307 1382.7 731.704 1310.99 693.938 1309.66C656.171 1308.33 642.372 1253.56 662.016 1238.27C681.66 1222.97 669.712 1190.86 724.477 1179.65C779.242 1168.43 755.29 1211.85 803.601 1226.22Z" stroke="white" stroke-width="5"/>
<path d="M701.437 507.686C718.045 511.162 737.815 540.809 745.624 555.198C762.994 568.588 776.76 554.838 799.401 549.573C822.043 544.309 832.021 508.509 852.013 491.936C872.004 475.363 854.441 453.305 848.569 418.438C842.696 383.572 784.946 372.234 771.559 389.564C758.172 406.895 707.044 423.828 693.472 446.247C679.9 468.665 680.677 503.34 701.437 507.686Z" stroke="white" stroke-width="5"/>
<path d="M683.417 506.333C700.025 509.809 719.795 539.457 727.604 553.846C744.974 567.235 758.74 553.485 781.381 548.221C804.023 542.956 814.001 507.156 833.993 490.583C853.984 474.01 836.421 451.952 830.549 417.086C824.676 382.219 766.926 370.881 753.539 388.212C740.152 405.542 689.024 422.476 675.452 444.894C661.88 467.312 662.657 501.988 683.417 506.333Z" stroke="white" stroke-width="5"/>
<circle cx="769.758" cy="480.789" r="36.1419" transform="rotate(-159.447 769.758 480.789)" fill="#FDB035"/>
<circle cx="638.632" cy="606.091" r="36.1419" transform="rotate(-159.447 638.632 606.091)" fill="#FDB035"/>
<circle cx="627.887" cy="593.571" r="33.6419" transform="rotate(-159.447 627.887 593.571)" stroke="#FFDD00" stroke-width="5"/>
<ellipse cx="592.935" cy="403.684" rx="26.3836" ry="26.0222" transform="rotate(-159.447 592.935 403.684)" fill="#FDB035"/>
<circle cx="585.151" cy="394.59" r="24.0222" transform="rotate(-159.447 585.151 394.59)" stroke="#FFDD00" stroke-width="4"/>
<circle cx="763.032" cy="483.285" r="22.2151" transform="rotate(-159.447 763.032 483.285)" stroke="#FFDD00" stroke-width="4"/>
<path d="M713.545 575.123C725.796 595.156 705.286 639.703 693.499 659.472C670.996 689.634 610.169 710.83 561.945 694.293C513.721 677.756 534.023 635.962 521.415 584.144C508.806 532.326 571.03 525.935 591.461 511.594C611.891 497.253 642.39 495.178 658.509 523.223C674.627 551.267 698.231 550.082 713.545 575.123Z" stroke="white" stroke-width="5"/>
<path d="M689.202 570.978C701.453 591.011 680.942 635.558 669.156 655.327C646.653 685.489 585.826 706.685 537.602 690.148C489.378 673.611 509.68 631.817 497.071 579.999C484.463 528.181 546.687 521.79 567.118 507.449C587.548 493.108 618.047 491.034 634.165 519.078C650.283 547.123 673.887 545.937 689.202 570.978Z" stroke="white" stroke-width="5"/>
<path d="M563.107 478.229C531.015 502.564 512.209 487.399 506.818 476.774C501.266 465.014 482.969 448.182 477.27 393.839C471.572 339.496 537.71 370.159 561.128 340.518C584.546 310.877 636.622 332.162 637.257 357.036C637.891 381.911 670.705 391.281 647.28 442.037C623.855 492.793 603.223 447.809 563.107 478.229Z" stroke="white" stroke-width="5"/>
<path d="M547.207 462.231C515.034 486.537 496.143 471.34 490.719 460.703C485.133 448.93 466.75 432.065 460.96 377.688C455.171 323.311 521.58 354.076 545.041 324.451C568.502 294.825 620.788 316.189 621.457 341.077C622.126 365.964 655.067 375.382 631.627 426.132C608.187 476.883 587.423 431.849 547.207 462.231Z" stroke="white" stroke-width="5"/>
<path d="M309.231 344.863C304.763 361.232 273.98 379.183 259.147 386.113C244.738 402.646 257.635 417.214 261.528 440.131C265.421 463.048 300.557 475.161 315.898 496.113C331.238 517.065 354.313 500.86 389.469 497.095C424.625 493.33 439.416 436.366 422.922 421.961C406.428 407.557 392.6 355.503 371.038 340.607C349.477 325.711 314.817 324.401 309.231 344.863Z" stroke="white" stroke-width="5"/>
<path d="M311.665 326.957C307.196 343.326 276.414 361.277 261.581 368.206C247.171 384.739 260.068 399.307 263.962 422.224C267.855 445.141 302.991 457.254 318.331 478.207C333.672 499.159 356.746 482.954 391.903 479.189C427.059 475.424 441.849 418.46 425.356 404.055C408.862 389.65 395.034 337.597 373.472 322.701C351.91 307.805 317.251 306.495 311.665 326.957Z" stroke="white" stroke-width="5"/>
<circle cx="331.971" cy="414.677" r="36.1419" transform="rotate(-65.9994 331.971 414.677)" fill="#FDB035"/>
<circle cx="214.781" cy="276.253" r="36.1419" transform="rotate(-65.9994 214.781 276.253)" fill="#FDB035"/>
<circle cx="227.925" cy="266.28" r="33.6419" transform="rotate(-65.9994 227.925 266.28)" stroke="#FFDD00" stroke-width="5"/>
<ellipse cx="419.57" cy="242.812" rx="26.3836" ry="26.0222" transform="rotate(-65.9994 419.57 242.812)" fill="#FDB035"/>
<circle cx="429.116" cy="235.589" r="24.0222" transform="rotate(-65.9994 429.116 235.589)" stroke="#FFDD00" stroke-width="4"/>
<circle cx="329.884" cy="407.813" r="22.2151" transform="rotate(-65.9994 329.884 407.813)" stroke="#FFDD00" stroke-width="4"/>
<path d="M241.188 352.893C220.454 363.918 177.222 340.765 158.197 327.811C129.443 303.535 111.943 241.543 131.35 194.401C150.758 147.259 191.255 170.038 243.738 160.568C296.22 151.099 298.857 213.595 311.944 234.851C325.031 256.107 325.267 286.675 296.304 301.077C267.341 315.48 267.105 339.112 241.188 352.893Z" stroke="white" stroke-width="5"/>
<path d="M246.789 328.843C226.055 339.868 182.823 316.715 163.798 303.761C135.044 279.485 117.544 217.493 136.952 170.351C156.359 123.209 196.857 145.988 249.339 136.518C301.821 127.049 304.459 189.545 317.545 210.801C330.632 232.057 330.868 262.625 301.905 277.028C272.942 291.43 272.706 315.062 246.789 328.843Z" stroke="white" stroke-width="5"/>
<path d="M346.954 208.555C324.592 175.057 340.861 157.197 351.791 152.455C363.863 147.621 381.766 130.368 436.353 127.948C490.94 125.528 456.355 189.703 484.534 214.861C512.714 240.019 488.335 290.721 463.467 289.858C438.6 288.995 427.273 321.187 378.018 294.752C328.762 268.317 374.906 250.427 346.954 208.555Z" stroke="white" stroke-width="5"/>
<path d="M363.878 193.645C341.551 160.069 357.857 142.126 368.801 137.352C380.889 132.484 398.829 115.148 453.456 112.639C508.083 110.13 473.379 174.569 501.54 199.769C529.701 224.969 505.231 275.876 480.349 275.047C455.466 274.218 444.084 306.533 394.835 280.083C345.586 253.634 391.787 235.616 363.878 193.645Z" stroke="white" stroke-width="5"/>
<path d="M244.51 656.005C235.682 589.909 252.683 572.312 304.258 570.755C311.874 570.525 318.857 566.312 322.561 559.653C347.551 514.722 365.106 513.236 394.15 538.197C397.465 541.046 401.564 542.856 405.893 543.457C433.672 547.309 442.907 558.095 442.533 585.438C442.424 593.453 446.446 600.986 453.175 605.342C482.418 624.275 486.669 643.966 471.165 684.258C469.433 688.756 469.255 693.757 470.661 698.367C487.953 755.059 470.801 768.905 418.724 773.296C414.28 773.671 410.043 775.455 406.637 778.334C358.212 819.272 333.08 806.295 284.151 761.768C281.599 759.446 278.42 757.786 275.07 756.958C199.391 738.235 213.345 715.569 241.551 669.757L241.713 669.494C244.188 665.473 245.136 660.685 244.51 656.005Z" fill="#F7F7F7"/>
<circle cx="362.052" cy="670.452" r="53.9219" fill="#EF9603"/>
<ellipse cx="367.5" cy="666" rx="42.5" ry="42" fill="#FFDD00"/>
<ellipse cx="365.583" cy="693.007" rx="3.04" ry="2.47932" fill="#EF9603"/>
<ellipse cx="392.606" cy="689.288" rx="3.04" ry="2.47932" fill="#EF9603"/>
<path d="M371.326 693.386C379.787 696.651 383.215 695.911 387.874 691.147" stroke="#EF9603" stroke-width="2"/>
<path d="M405.642 712.231C406.282 714.73 399.708 736.324 388.038 738.839C376.368 741.353 356.535 735.237 355.895 732.737C355.296 730.394 370.099 728.999 381.568 726.761C383.063 726.469 384.53 726.05 385.905 725.426C397.612 720.124 405.037 709.87 405.642 712.231Z" fill="#FCDB7D"/>
<path d="M361.404 609.721C367.184 605.896 412.07 595.557 423.682 614.657C435.294 633.758 434.019 669.313 428.239 673.138C422.737 676.779 419.307 649.852 408.975 630.778C407.941 628.868 406.628 627.13 405.019 625.713C386.534 609.442 355.865 613.387 361.404 609.721Z" fill="#FCDB7D"/>
<path d="M370.944 538.812C382.351 544.78 448.369 592.923 440.075 607.395C431.781 621.868 378.507 616.069 367.1 610.101C376.197 601.461 390.567 603.816 399.929 596.578C403.968 593.456 405.207 588.07 403.576 583.408C396.064 561.924 360.759 533.483 370.944 538.812Z" fill="#FCDB7D"/>
<circle cx="374.808" cy="646.936" r="13.291" fill="#F7F7F7"/>
<path d="M29.2822 724.76C18.9818 763.201 36.8265 810.67 78.5855 821.859C99.7562 827.532 119.554 825.976 136.329 816.67C153.115 807.359 167.13 790.147 176.445 764.025C185.732 737.983 186.123 707.564 178.6 682.073C171.066 656.544 155.744 636.368 133.957 630.056C107.444 622.375 85.4256 631 67.9044 649.053C50.2975 667.194 37.3044 694.821 29.2822 724.76Z" fill="#D05F01" stroke="#FDB035" stroke-width="4"/>
<path d="M73.9611 815.216C54.4266 809.982 39.4364 794.827 30.684 776.159C21.931 757.489 19.3062 735.093 24.6829 715.027C32.8362 684.599 48.5122 659.427 67.0163 643.108C85.493 626.813 107.029 619.169 126.723 624.446C146.606 629.774 159.741 650.023 166.299 674.414C172.887 698.92 173.049 728.283 166.425 753.007C153.121 802.657 112.844 825.635 73.9611 815.216Z" fill="#FEFEFD" stroke="#FDB035" stroke-width="4"/>
<path d="M37.8383 728.117C31.5662 759.298 34.6876 802.934 76.3062 814.086C104.89 821.745 147.74 800.985 162.379 761.488C177.017 721.991 172.167 653.07 139.256 640.952C106.344 628.835 54.1214 647.169 37.8383 728.117Z" fill="#FAF0D7"/>
<path d="M61.6992 696C63.2331 705.841 71.0894 722.35 90.2439 709.661" stroke="#EF9603" stroke-width="2.84064" stroke-linecap="round" stroke-linejoin="round"/>
<path d="M142.822 752.848C147.12 743.864 149.973 725.804 127 725.443" stroke="#EF9603" stroke-width="2.84064" stroke-linecap="round" stroke-linejoin="round"/>
<path d="M89.8463 740C81.6319 745.632 69.7788 759.398 82.7787 775.898" stroke="#EF9603" stroke-width="2.84064" stroke-linecap="round" stroke-linejoin="round"/>
<path d="M107.605 752.13C101.128 759.696 96.9999 773 107.605 784.5" stroke="#EF9603" stroke-width="2.84064" stroke-linecap="round" stroke-linejoin="round"/>
<ellipse rx="32.1077" ry="40.8919" transform="matrix(-0.965926 -0.258819 -0.258819 0.965926 104.842 725.084)" fill="#FEC00A"/>
<ellipse rx="27.5642" ry="35.1367" transform="matrix(-0.965926 -0.258819 -0.258819 0.965926 104.124 725.143)" fill="#FFDD00"/>
<ellipse rx="4.84645" ry="7.57257" transform="matrix(-0.965926 -0.258819 -0.258819 0.965926 92.2977 717.3)" fill="#EF9603"/>
<ellipse rx="1.81742" ry="3.02903" transform="matrix(-0.965926 -0.258819 -0.258819 0.965926 91.6761 714.938)" fill="white"/>
<ellipse rx="4.84645" ry="7.57257" transform="matrix(-0.965926 -0.258819 -0.258819 0.965926 114.214 722.958)" fill="#EF9603"/>
<ellipse rx="2.12032" ry="2.72613" transform="matrix(-0.965926 -0.258819 -0.258819 0.965926 113.807 720.967)" fill="white"/>
<ellipse cx="99.3139" cy="735.593" rx="4.24064" ry="5.45225" transform="rotate(15 99.3139 735.593)" fill="#EF9603"/>
<path d="M220.178 841.747C261.672 816.358 320.254 833.964 344.359 845.94C363.073 855.238 399.738 868.246 463.688 836.42C527.639 804.593 551.712 881.417 526.876 906.919C500.261 934.247 518.212 944.889 526.876 954.069C576.087 999.18 503.426 1081.92 464.613 1044.86C433.562 1015.21 402.926 1096.54 325.992 1048.37C294.687 1016.75 260.186 1080.92 207.24 1056.87C188.527 1048.37 115.404 964.724 167.271 940.808C208.765 921.676 208.395 895.244 194.187 887.311C185.561 882.701 178.684 867.135 220.178 841.747Z" fill="#EF9603" stroke="#EF9603" stroke-width="1.1288"/>
<path d="M235.466 832.935C276.012 807.65 333.257 825.184 356.812 837.112C375.098 846.372 410.926 859.326 473.416 827.63C535.906 795.933 559.431 872.443 535.161 897.841C509.154 925.058 526.695 935.656 535.161 944.799C583.248 989.725 512.247 1072.13 474.319 1035.22C443.977 1005.69 414.042 1086.69 338.864 1038.71C308.273 1007.22 274.56 1071.13 222.823 1047.18C204.537 1038.71 133.084 955.41 183.767 931.592C224.313 912.538 223.952 886.214 210.068 878.313C201.639 873.722 194.919 858.22 235.466 832.935Z" fill="white" stroke="#EF9603" stroke-width="4"/>
<ellipse cx="279.715" cy="945.702" rx="45.1519" ry="55.5368" fill="#FDB035"/>
<ellipse cx="279.5" cy="948" rx="35.5" ry="42" fill="#FFDD00"/>
<path d="M257.34 935L273.358 941.411C273.836 941.602 273.832 942.28 273.351 942.465L253 950.283" stroke="#EF9603" stroke-width="1.88683"/>
<path d="M304.133 935L288.114 941.411C287.636 941.602 287.641 942.28 288.121 942.465L308.473 950.283" stroke="#EF9603" stroke-width="1.88683"/>
<path d="M286.736 954.425C286.736 955.99 284.57 960.863 280.659 961.164C277.336 961.164 274.642 958.147 274.642 954.425C274.642 950.704 277.336 947.687 280.659 947.687C282.765 947.687 286.736 951.838 286.736 954.425Z" fill="#EF9603"/>
<ellipse cx="450.074" cy="919.202" rx="59.7134" ry="38.8398" transform="rotate(-92.0973 450.074 919.202)" fill="#FDB035"/>
<ellipse cx="452.408" cy="918.638" rx="47.5105" ry="31.6904" transform="rotate(-92.0973 452.408 918.638)" fill="#FFDD00"/>
<path d="M429.819 914.95C433.643 903.336 437.59 903.267 442.454 913.959" stroke="#EF9603" stroke-width="2.73652" stroke-linecap="round"/>
<path d="M455.686 912.922C460.464 908.345 464.733 908.099 469.394 911.847" stroke="#EF9603" stroke-width="2.73652" stroke-linecap="round"/>
<path d="M459.812 921.05C459.924 922.477 459.753 923.912 459.311 925.273C458.868 926.634 458.162 927.894 457.232 928.982C456.302 930.07 455.167 930.965 453.892 931.614C452.617 932.263 451.226 932.655 449.799 932.767C448.372 932.879 446.937 932.709 445.576 932.266C444.215 931.823 442.955 931.117 441.867 930.187C440.779 929.257 439.885 928.122 439.235 926.847C438.586 925.572 438.194 924.181 438.082 922.754L448.947 921.902L459.812 921.05Z" fill="#EF9603"/>
</svg>
