<svg width="310" height="405" viewBox="0 0 310 405" fill="none" xmlns="http://www.w3.org/2000/svg">
<path d="M183.709 157.457L269.77 0.655273H245.804L160.521 157.379L183.709 157.457Z" fill="#F38F12"/>
<path d="M215.301 157.457L301.284 0.655273H277.318L192.113 157.379L215.301 157.457Z" fill="#D05F01"/>
<path d="M152.117 157.457L238.178 0.655273H214.211L128.929 157.379L152.117 157.457Z" fill="#FEC00A"/>
<path d="M120.603 157.38L206.586 0.65564H178.729L91.8901 157.38H120.603Z" fill="#FFDD00"/>
<path d="M99.5162 312.858L137.1 239.362L124.183 215.46L70.5699 312.858H99.5162Z" fill="#F38F12"/>
<path d="M130.019 312.858L152.117 269.959L138.345 244.656L103.484 312.858H130.019Z" fill="#D05F01"/>
<path d="M67.6906 312.858L121.303 212.19L107.608 187.51L37.5771 312.858H67.6906Z" fill="#FEC00A"/>
<path d="M34.9316 312.858L105.196 182.527L90.1007 159.17L4.97375 312.858H34.9316Z" fill="#FFDD00"/>
<path d="M0.538452 0.656982H9.02002L91.5792 150.608L103.329 129.976L32.1304 0.656982H40.0672L107.375 122.969L119.203 101.169L63.0998 0.656982H71.3479L122.938 94.5513L134.22 74.5423L95.8589 0.656982H104.107L138.345 66.8346L149.472 46.047L126.206 0.656982H133.598L153.44 38.8064L165.268 17.5517L169.314 10.7004L174.761 0.656982H182.62L97.0261 157.459L182.62 312.859H174.839L169.781 303.75L165.89 296.198L153.985 274.866L134.687 312.859H127.14L150.172 267.937L138.422 246.76L104.963 312.859H97.1817L134.61 239.519L123.56 219.744L72.2038 312.859H64.5782L119.825 212.815L107.764 191.093L41.2344 312.859H33.2197L103.718 184.086L92.5129 163.765L10.265 312.859H2.48377L87.6107 157.459L0.538452 0.656982Z" fill="white"/>
<path d="M120.603 157.458L206.664 0.65564H214.212L128.929 157.38L215.146 312.858H206.897L120.603 157.458Z" fill="white"/>
<path d="M152.117 157.457L238.178 0.655273H245.804L160.521 157.379L246.66 312.858H238.489L152.117 157.457Z" fill="white"/>
<path d="M183.709 157.457L269.77 0.655273H277.318L192.113 157.379L278.251 312.858H270.081L183.709 157.457Z" fill="white"/>
<path d="M215.301 157.457L301.362 0.655273H308.91L223.627 157.379L309.844 312.858H301.595L215.301 157.457Z" fill="white"/>
<path d="M29.5128 403.412C28.6688 402.567 28.2468 401.441 28.2468 400.315V339.371C28.2468 338.105 28.6688 337.12 29.5128 336.134C30.3569 335.29 31.4822 334.868 32.6076 334.868C33.8736 334.868 34.8583 335.29 35.8429 336.134C36.687 336.979 37.109 338.105 37.109 339.371V365.55H74.5269V339.231C74.5269 337.964 74.9489 336.979 75.7929 335.994C76.6369 335.149 77.7623 334.727 78.8876 334.727C80.1537 334.727 81.1383 335.149 82.123 335.994C82.967 336.838 83.389 337.964 83.389 339.231V400.174C83.389 401.441 82.967 402.426 82.123 403.271C81.279 404.115 80.1537 404.538 78.8876 404.538C77.6216 404.538 76.6369 404.115 75.7929 403.271C74.9489 402.426 74.5269 401.3 74.5269 400.174V373.995H37.2496V400.315C37.2496 401.582 36.8276 402.567 35.9836 403.412C35.1396 404.256 34.0142 404.678 32.7482 404.678C31.4822 404.678 30.3569 404.256 29.5128 403.412Z" fill="white"/>
<path d="M125.107 403.412C124.263 402.567 123.841 401.441 123.841 400.315C123.841 399.752 123.981 399.189 124.403 398.345L149.583 338.808C150.146 337.682 150.849 336.697 151.834 335.853C152.818 335.149 153.944 334.727 155.35 334.727H156.335C157.742 334.727 158.867 335.149 159.852 335.853C160.836 336.557 161.54 337.542 162.103 338.808L187.282 398.345C187.564 399.189 187.845 399.752 187.845 400.315C187.845 401.582 187.423 402.567 186.579 403.412C185.735 404.256 184.75 404.678 183.344 404.678C182.359 404.678 181.515 404.397 180.811 403.975C180.108 403.412 179.545 402.849 179.123 402.004L172.653 386.522H139.033L132.562 402.004C132.14 402.849 131.577 403.552 130.874 403.975C130.171 404.538 129.327 404.678 128.342 404.678C127.076 404.678 125.951 404.256 125.107 403.412ZM142.409 378.359H169.136L155.772 346.268L142.409 378.359Z" fill="white"/>
<path d="M228.994 402.511C228.162 401.68 227.747 400.709 227.747 399.6C227.747 398.63 228.024 397.66 228.578 396.828L251.022 369.243L228.716 341.796C228.162 340.965 227.885 340.133 227.885 339.024C227.885 337.776 228.301 336.806 229.132 335.974C229.963 335.143 230.933 334.727 232.18 334.727C232.873 334.727 233.565 334.865 234.258 335.281C234.951 335.559 235.366 335.974 235.782 336.529L256.286 362.589L276.79 336.252C277.483 335.281 278.591 334.727 279.977 334.727C281.085 334.727 282.194 335.143 283.025 335.974C283.856 336.806 284.272 337.776 284.272 338.885C284.272 339.856 283.995 340.549 283.44 341.38L260.997 369.104L283.44 396.689C283.995 397.383 284.272 398.214 284.272 399.185C284.272 400.432 283.856 401.402 283.025 402.234C282.194 403.066 281.224 403.482 279.838 403.482C278.453 403.482 277.206 402.927 276.375 401.68L255.594 375.481L235.089 401.818C234.12 402.927 233.011 403.62 231.626 403.62C230.795 403.62 229.825 403.343 228.994 402.511Z" fill="#FFDD00"/>
</svg>
