<svg width="310" height="313" viewBox="0 0 310 313" fill="none" xmlns="http://www.w3.org/2000/svg">
<path d="M183.709 157.457L269.77 0.655273H245.804L160.521 157.379L183.709 157.457Z" fill="#F38F12"/>
<path d="M215.301 157.457L301.284 0.655273H277.318L192.113 157.379L215.301 157.457Z" fill="#D05F01"/>
<path d="M152.117 157.457L238.178 0.655273H214.211L128.929 157.379L152.117 157.457Z" fill="#FEC00A"/>
<path d="M120.603 157.38L206.586 0.65564H178.729L91.8901 157.38H120.603Z" fill="#FFDD00"/>
<path d="M99.5162 312.858L137.1 239.362L124.183 215.46L70.5699 312.858H99.5162Z" fill="#F38F12"/>
<path d="M130.019 312.858L152.117 269.959L138.345 244.656L103.484 312.858H130.019Z" fill="#D05F01"/>
<path d="M67.6906 312.858L121.303 212.19L107.608 187.51L37.5771 312.858H67.6906Z" fill="#FEC00A"/>
<path d="M34.9316 312.858L105.196 182.527L90.1007 159.17L4.97375 312.858H34.9316Z" fill="#FFDD00"/>
<path d="M0.538452 0.656982H9.02002L91.5792 150.608L103.329 129.976L32.1304 0.656982H40.0672L107.375 122.969L119.203 101.169L63.0998 0.656982H71.3479L122.938 94.5513L134.22 74.5423L95.8589 0.656982H104.107L138.345 66.8346L149.472 46.047L126.206 0.656982H133.598L153.44 38.8064L165.268 17.5517L169.314 10.7004L174.761 0.656982H182.62L97.0261 157.459L182.62 312.859H174.839L169.781 303.75L165.89 296.198L153.985 274.866L134.687 312.859H127.14L150.172 267.937L138.422 246.76L104.963 312.859H97.1817L134.61 239.519L123.56 219.744L72.2038 312.859H64.5782L119.825 212.815L107.764 191.093L41.2344 312.859H33.2197L103.718 184.086L92.5129 163.765L10.265 312.859H2.48377L87.6107 157.459L0.538452 0.656982Z" fill="white"/>
<path d="M120.603 157.458L206.664 0.65564H214.212L128.929 157.38L215.146 312.858H206.897L120.603 157.458Z" fill="white"/>
<path d="M152.117 157.457L238.178 0.655273H245.804L160.521 157.379L246.66 312.858H238.489L152.117 157.457Z" fill="white"/>
<path d="M183.709 157.457L269.77 0.655273H277.318L192.113 157.379L278.251 312.858H270.081L183.709 157.457Z" fill="white"/>
<path d="M215.301 157.457L301.362 0.655273H308.91L223.627 157.379L309.844 312.858H301.595L215.301 157.457Z" fill="white"/>
</svg>
